<mxfile host="app.diagrams.net" modified="2023-10-06T01:28:52.881Z" agent="Mozilla/5.0 (Windows NT 10.0; Win64; x64) AppleWebKit/537.36 (KHTML, like Gecko) Chrome/117.0.0.0 Safari/537.36" etag="kWIerqFJTuA0suLsph8n" version="22.0.3" type="onedrive">
  <diagram id="C5RBs43oDa-KdzZeNtuy" name="Page-1">
    <mxGraphModel grid="1" page="1" gridSize="10" guides="1" tooltips="1" connect="1" arrows="1" fold="1" pageScale="1" pageWidth="827" pageHeight="1169" math="0" shadow="0">
      <root>
        <mxCell id="WIyWlLk6GJQsqaUBKTNV-0" />
        <mxCell id="WIyWlLk6GJQsqaUBKTNV-1" parent="WIyWlLk6GJQsqaUBKTNV-0" />
        <mxCell id="CeqY9ZqF0VEwMTMQzWw6-6" value="SkyBoard" style="rounded=1;whiteSpace=wrap;html=1;strokeWidth=2;fontSize=22;labelBackgroundColor=default;fontStyle=5" vertex="1" parent="WIyWlLk6GJQsqaUBKTNV-1">
          <mxGeometry x="319" y="40" width="180" height="60" as="geometry" />
        </mxCell>
        <mxCell id="CeqY9ZqF0VEwMTMQzWw6-46" style="edgeStyle=orthogonalEdgeStyle;rounded=0;orthogonalLoop=1;jettySize=auto;html=1;entryX=0.5;entryY=0;entryDx=0;entryDy=0;" edge="1" parent="WIyWlLk6GJQsqaUBKTNV-1" source="CeqY9ZqF0VEwMTMQzWw6-7" target="CeqY9ZqF0VEwMTMQzWw6-39">
          <mxGeometry relative="1" as="geometry" />
        </mxCell>
        <mxCell id="CeqY9ZqF0VEwMTMQzWw6-55" style="edgeStyle=orthogonalEdgeStyle;rounded=0;orthogonalLoop=1;jettySize=auto;html=1;entryX=0.5;entryY=0;entryDx=0;entryDy=0;" edge="1" parent="WIyWlLk6GJQsqaUBKTNV-1" source="CeqY9ZqF0VEwMTMQzWw6-7" target="CeqY9ZqF0VEwMTMQzWw6-51">
          <mxGeometry relative="1" as="geometry" />
        </mxCell>
        <mxCell id="CeqY9ZqF0VEwMTMQzWw6-7" value="&lt;b&gt;&lt;font style=&quot;font-size: 16px;&quot;&gt;Classes&lt;/font&gt;&lt;/b&gt;" style="rounded=0;whiteSpace=wrap;html=1;" vertex="1" parent="WIyWlLk6GJQsqaUBKTNV-1">
          <mxGeometry x="349" y="150" width="120" height="60" as="geometry" />
        </mxCell>
        <mxCell id="CeqY9ZqF0VEwMTMQzWw6-8" value="" style="endArrow=classic;html=1;rounded=0;exitX=0.5;exitY=1;exitDx=0;exitDy=0;entryX=0.5;entryY=0;entryDx=0;entryDy=0;" edge="1" parent="WIyWlLk6GJQsqaUBKTNV-1" source="CeqY9ZqF0VEwMTMQzWw6-6" target="CeqY9ZqF0VEwMTMQzWw6-7">
          <mxGeometry width="50" height="50" relative="1" as="geometry">
            <mxPoint x="389" y="310" as="sourcePoint" />
            <mxPoint x="439" y="260" as="targetPoint" />
          </mxGeometry>
        </mxCell>
        <mxCell id="CeqY9ZqF0VEwMTMQzWw6-27" value="Recepcionista" style="swimlane;fontStyle=1;align=center;verticalAlign=top;childLayout=stackLayout;horizontal=1;startSize=26;horizontalStack=0;resizeParent=1;resizeParentMax=0;resizeLast=0;collapsible=1;marginBottom=0;whiteSpace=wrap;html=1;" vertex="1" parent="WIyWlLk6GJQsqaUBKTNV-1">
          <mxGeometry x="59" y="490" width="210" height="164" as="geometry" />
        </mxCell>
        <mxCell id="CeqY9ZqF0VEwMTMQzWw6-28" value="+ e-mail: String" style="text;strokeColor=none;fillColor=none;align=left;verticalAlign=top;spacingLeft=4;spacingRight=4;overflow=hidden;rotatable=0;points=[[0,0.5],[1,0.5]];portConstraint=eastwest;whiteSpace=wrap;html=1;" vertex="1" parent="CeqY9ZqF0VEwMTMQzWw6-27">
          <mxGeometry y="26" width="210" height="26" as="geometry" />
        </mxCell>
        <mxCell id="CeqY9ZqF0VEwMTMQzWw6-64" value="+ senha: Any" style="text;strokeColor=none;fillColor=none;align=left;verticalAlign=top;spacingLeft=4;spacingRight=4;overflow=hidden;rotatable=0;points=[[0,0.5],[1,0.5]];portConstraint=eastwest;whiteSpace=wrap;html=1;" vertex="1" parent="CeqY9ZqF0VEwMTMQzWw6-27">
          <mxGeometry y="52" width="210" height="26" as="geometry" />
        </mxCell>
        <mxCell id="CeqY9ZqF0VEwMTMQzWw6-29" value="" style="line;strokeWidth=1;fillColor=none;align=left;verticalAlign=middle;spacingTop=-1;spacingLeft=3;spacingRight=3;rotatable=0;labelPosition=right;points=[];portConstraint=eastwest;strokeColor=inherit;" vertex="1" parent="CeqY9ZqF0VEwMTMQzWw6-27">
          <mxGeometry y="78" width="210" height="8" as="geometry" />
        </mxCell>
        <mxCell id="CeqY9ZqF0VEwMTMQzWw6-82" value="+ VerificarVOO();" style="text;strokeColor=none;fillColor=none;align=left;verticalAlign=top;spacingLeft=4;spacingRight=4;overflow=hidden;rotatable=0;points=[[0,0.5],[1,0.5]];portConstraint=eastwest;whiteSpace=wrap;html=1;" vertex="1" parent="CeqY9ZqF0VEwMTMQzWw6-27">
          <mxGeometry y="86" width="210" height="26" as="geometry" />
        </mxCell>
        <mxCell id="CeqY9ZqF0VEwMTMQzWw6-70" value="+ VerificarBagagem();" style="text;strokeColor=none;fillColor=none;align=left;verticalAlign=top;spacingLeft=4;spacingRight=4;overflow=hidden;rotatable=0;points=[[0,0.5],[1,0.5]];portConstraint=eastwest;whiteSpace=wrap;html=1;" vertex="1" parent="CeqY9ZqF0VEwMTMQzWw6-27">
          <mxGeometry y="112" width="210" height="26" as="geometry" />
        </mxCell>
        <mxCell id="CeqY9ZqF0VEwMTMQzWw6-73" value="+ CadastroRecepcionista();" style="text;strokeColor=none;fillColor=none;align=left;verticalAlign=top;spacingLeft=4;spacingRight=4;overflow=hidden;rotatable=0;points=[[0,0.5],[1,0.5]];portConstraint=eastwest;whiteSpace=wrap;html=1;" vertex="1" parent="CeqY9ZqF0VEwMTMQzWw6-27">
          <mxGeometry y="138" width="210" height="26" as="geometry" />
        </mxCell>
        <mxCell id="CeqY9ZqF0VEwMTMQzWw6-81" style="edgeStyle=orthogonalEdgeStyle;rounded=0;orthogonalLoop=1;jettySize=auto;html=1;entryX=0.5;entryY=0;entryDx=0;entryDy=0;" edge="1" parent="WIyWlLk6GJQsqaUBKTNV-1" source="CeqY9ZqF0VEwMTMQzWw6-31">
          <mxGeometry relative="1" as="geometry">
            <mxPoint x="413" y="750" as="targetPoint" />
          </mxGeometry>
        </mxCell>
        <mxCell id="CeqY9ZqF0VEwMTMQzWw6-31" value="Passageiro" style="swimlane;fontStyle=1;align=center;verticalAlign=top;childLayout=stackLayout;horizontal=1;startSize=26;horizontalStack=0;resizeParent=1;resizeParentMax=0;resizeLast=0;collapsible=1;marginBottom=0;whiteSpace=wrap;html=1;" vertex="1" parent="WIyWlLk6GJQsqaUBKTNV-1">
          <mxGeometry x="323" y="490" width="180" height="224" as="geometry" />
        </mxCell>
        <mxCell id="CeqY9ZqF0VEwMTMQzWw6-32" value="+ PassaporteID: INT" style="text;strokeColor=none;fillColor=none;align=left;verticalAlign=top;spacingLeft=4;spacingRight=4;overflow=hidden;rotatable=0;points=[[0,0.5],[1,0.5]];portConstraint=eastwest;whiteSpace=wrap;html=1;" vertex="1" parent="CeqY9ZqF0VEwMTMQzWw6-31">
          <mxGeometry y="26" width="180" height="26" as="geometry" />
        </mxCell>
        <mxCell id="CeqY9ZqF0VEwMTMQzWw6-75" value="+ CodPassagem: INT" style="text;strokeColor=none;fillColor=none;align=left;verticalAlign=top;spacingLeft=4;spacingRight=4;overflow=hidden;rotatable=0;points=[[0,0.5],[1,0.5]];portConstraint=eastwest;whiteSpace=wrap;html=1;" vertex="1" parent="CeqY9ZqF0VEwMTMQzWw6-31">
          <mxGeometry y="52" width="180" height="26" as="geometry" />
        </mxCell>
        <mxCell id="CeqY9ZqF0VEwMTMQzWw6-33" value="" style="line;strokeWidth=1;fillColor=none;align=left;verticalAlign=middle;spacingTop=-1;spacingLeft=3;spacingRight=3;rotatable=0;labelPosition=right;points=[];portConstraint=eastwest;strokeColor=inherit;" vertex="1" parent="CeqY9ZqF0VEwMTMQzWw6-31">
          <mxGeometry y="78" width="180" height="8" as="geometry" />
        </mxCell>
        <mxCell id="CeqY9ZqF0VEwMTMQzWw6-69" value="+RegistrarVOO(Passageiro);" style="text;strokeColor=none;fillColor=none;align=left;verticalAlign=top;spacingLeft=4;spacingRight=4;overflow=hidden;rotatable=0;points=[[0,0.5],[1,0.5]];portConstraint=eastwest;whiteSpace=wrap;html=1;" vertex="1" parent="CeqY9ZqF0VEwMTMQzWw6-31">
          <mxGeometry y="86" width="180" height="34" as="geometry" />
        </mxCell>
        <mxCell id="CeqY9ZqF0VEwMTMQzWw6-71" value="+ CheckOutPassageiro();" style="text;strokeColor=none;fillColor=none;align=left;verticalAlign=top;spacingLeft=4;spacingRight=4;overflow=hidden;rotatable=0;points=[[0,0.5],[1,0.5]];portConstraint=eastwest;whiteSpace=wrap;html=1;" vertex="1" parent="CeqY9ZqF0VEwMTMQzWw6-31">
          <mxGeometry y="120" width="180" height="26" as="geometry" />
        </mxCell>
        <mxCell id="CeqY9ZqF0VEwMTMQzWw6-68" value="+ EditarCadastroPassageiro();&lt;br&gt;" style="text;strokeColor=none;fillColor=none;align=left;verticalAlign=top;spacingLeft=4;spacingRight=4;overflow=hidden;rotatable=0;points=[[0,0.5],[1,0.5]];portConstraint=eastwest;whiteSpace=wrap;html=1;" vertex="1" parent="CeqY9ZqF0VEwMTMQzWw6-31">
          <mxGeometry y="146" width="180" height="26" as="geometry" />
        </mxCell>
        <mxCell id="CeqY9ZqF0VEwMTMQzWw6-30" value="+ CadastrarPassageiro();" style="text;strokeColor=none;fillColor=none;align=left;verticalAlign=top;spacingLeft=4;spacingRight=4;overflow=hidden;rotatable=0;points=[[0,0.5],[1,0.5]];portConstraint=eastwest;whiteSpace=wrap;html=1;" vertex="1" parent="CeqY9ZqF0VEwMTMQzWw6-31">
          <mxGeometry y="172" width="180" height="26" as="geometry" />
        </mxCell>
        <mxCell id="CeqY9ZqF0VEwMTMQzWw6-72" value="+ RegistrarBagagem();" style="text;strokeColor=none;fillColor=none;align=left;verticalAlign=top;spacingLeft=4;spacingRight=4;overflow=hidden;rotatable=0;points=[[0,0.5],[1,0.5]];portConstraint=eastwest;whiteSpace=wrap;html=1;" vertex="1" parent="CeqY9ZqF0VEwMTMQzWw6-31">
          <mxGeometry y="198" width="180" height="26" as="geometry" />
        </mxCell>
        <mxCell id="CeqY9ZqF0VEwMTMQzWw6-35" value="Bagagem" style="swimlane;fontStyle=1;align=center;verticalAlign=top;childLayout=stackLayout;horizontal=1;startSize=26;horizontalStack=0;resizeParent=1;resizeParentMax=0;resizeLast=0;collapsible=1;marginBottom=0;whiteSpace=wrap;html=1;" vertex="1" parent="WIyWlLk6GJQsqaUBKTNV-1">
          <mxGeometry x="334" y="1020" width="160" height="138" as="geometry" />
        </mxCell>
        <mxCell id="CeqY9ZqF0VEwMTMQzWw6-38" value="+ Checada(): Boolean" style="text;strokeColor=none;fillColor=none;align=left;verticalAlign=top;spacingLeft=4;spacingRight=4;overflow=hidden;rotatable=0;points=[[0,0.5],[1,0.5]];portConstraint=eastwest;whiteSpace=wrap;html=1;" vertex="1" parent="CeqY9ZqF0VEwMTMQzWw6-35">
          <mxGeometry y="26" width="160" height="26" as="geometry" />
        </mxCell>
        <mxCell id="CeqY9ZqF0VEwMTMQzWw6-36" value="+ IdBagagem: INT" style="text;strokeColor=none;fillColor=none;align=left;verticalAlign=top;spacingLeft=4;spacingRight=4;overflow=hidden;rotatable=0;points=[[0,0.5],[1,0.5]];portConstraint=eastwest;whiteSpace=wrap;html=1;" vertex="1" parent="CeqY9ZqF0VEwMTMQzWw6-35">
          <mxGeometry y="52" width="160" height="26" as="geometry" />
        </mxCell>
        <mxCell id="CeqY9ZqF0VEwMTMQzWw6-78" value="+ IdDono: INT" style="text;strokeColor=none;fillColor=none;align=left;verticalAlign=top;spacingLeft=4;spacingRight=4;overflow=hidden;rotatable=0;points=[[0,0.5],[1,0.5]];portConstraint=eastwest;whiteSpace=wrap;html=1;" vertex="1" parent="CeqY9ZqF0VEwMTMQzWw6-35">
          <mxGeometry y="78" width="160" height="26" as="geometry" />
        </mxCell>
        <mxCell id="CeqY9ZqF0VEwMTMQzWw6-79" value="+ Peso: Double" style="text;strokeColor=none;fillColor=none;align=left;verticalAlign=top;spacingLeft=4;spacingRight=4;overflow=hidden;rotatable=0;points=[[0,0.5],[1,0.5]];portConstraint=eastwest;whiteSpace=wrap;html=1;" vertex="1" parent="CeqY9ZqF0VEwMTMQzWw6-35">
          <mxGeometry y="104" width="160" height="26" as="geometry" />
        </mxCell>
        <mxCell id="CeqY9ZqF0VEwMTMQzWw6-37" value="" style="line;strokeWidth=1;fillColor=none;align=left;verticalAlign=middle;spacingTop=-1;spacingLeft=3;spacingRight=3;rotatable=0;labelPosition=right;points=[];portConstraint=eastwest;strokeColor=inherit;" vertex="1" parent="CeqY9ZqF0VEwMTMQzWw6-35">
          <mxGeometry y="130" width="160" height="8" as="geometry" />
        </mxCell>
        <mxCell id="CeqY9ZqF0VEwMTMQzWw6-39" value="VOO" style="swimlane;fontStyle=1;align=center;verticalAlign=top;childLayout=stackLayout;horizontal=1;startSize=26;horizontalStack=0;resizeParent=1;resizeParentMax=0;resizeLast=0;collapsible=1;marginBottom=0;whiteSpace=wrap;html=1;" vertex="1" parent="WIyWlLk6GJQsqaUBKTNV-1">
          <mxGeometry x="569" y="330" width="200" height="216" as="geometry" />
        </mxCell>
        <mxCell id="CeqY9ZqF0VEwMTMQzWw6-83" value="+ Id: INT" style="text;strokeColor=none;fillColor=none;align=left;verticalAlign=top;spacingLeft=4;spacingRight=4;overflow=hidden;rotatable=0;points=[[0,0.5],[1,0.5]];portConstraint=eastwest;whiteSpace=wrap;html=1;" vertex="1" parent="CeqY9ZqF0VEwMTMQzWw6-39">
          <mxGeometry y="26" width="200" height="26" as="geometry" />
        </mxCell>
        <mxCell id="CeqY9ZqF0VEwMTMQzWw6-40" value="+ Status: String" style="text;strokeColor=none;fillColor=none;align=left;verticalAlign=top;spacingLeft=4;spacingRight=4;overflow=hidden;rotatable=0;points=[[0,0.5],[1,0.5]];portConstraint=eastwest;whiteSpace=wrap;html=1;" vertex="1" parent="CeqY9ZqF0VEwMTMQzWw6-39">
          <mxGeometry y="52" width="200" height="26" as="geometry" />
        </mxCell>
        <mxCell id="CeqY9ZqF0VEwMTMQzWw6-84" value="+ Destino: String" style="text;strokeColor=none;fillColor=none;align=left;verticalAlign=top;spacingLeft=4;spacingRight=4;overflow=hidden;rotatable=0;points=[[0,0.5],[1,0.5]];portConstraint=eastwest;whiteSpace=wrap;html=1;" vertex="1" parent="CeqY9ZqF0VEwMTMQzWw6-39">
          <mxGeometry y="78" width="200" height="26" as="geometry" />
        </mxCell>
        <mxCell id="CeqY9ZqF0VEwMTMQzWw6-85" value="+ Horario: String" style="text;strokeColor=none;fillColor=none;align=left;verticalAlign=top;spacingLeft=4;spacingRight=4;overflow=hidden;rotatable=0;points=[[0,0.5],[1,0.5]];portConstraint=eastwest;whiteSpace=wrap;html=1;" vertex="1" parent="CeqY9ZqF0VEwMTMQzWw6-39">
          <mxGeometry y="104" width="200" height="26" as="geometry" />
        </mxCell>
        <mxCell id="CeqY9ZqF0VEwMTMQzWw6-86" value="+ Capacidade: INT" style="text;strokeColor=none;fillColor=none;align=left;verticalAlign=top;spacingLeft=4;spacingRight=4;overflow=hidden;rotatable=0;points=[[0,0.5],[1,0.5]];portConstraint=eastwest;whiteSpace=wrap;html=1;" vertex="1" parent="CeqY9ZqF0VEwMTMQzWw6-39">
          <mxGeometry y="130" width="200" height="26" as="geometry" />
        </mxCell>
        <mxCell id="CeqY9ZqF0VEwMTMQzWw6-88" value="+ PesoMaximo: Float" style="text;strokeColor=none;fillColor=none;align=left;verticalAlign=top;spacingLeft=4;spacingRight=4;overflow=hidden;rotatable=0;points=[[0,0.5],[1,0.5]];portConstraint=eastwest;whiteSpace=wrap;html=1;" vertex="1" parent="CeqY9ZqF0VEwMTMQzWw6-39">
          <mxGeometry y="156" width="200" height="26" as="geometry" />
        </mxCell>
        <mxCell id="CeqY9ZqF0VEwMTMQzWw6-41" value="" style="line;strokeWidth=1;fillColor=none;align=left;verticalAlign=middle;spacingTop=-1;spacingLeft=3;spacingRight=3;rotatable=0;labelPosition=right;points=[];portConstraint=eastwest;strokeColor=inherit;" vertex="1" parent="CeqY9ZqF0VEwMTMQzWw6-39">
          <mxGeometry y="182" width="200" height="8" as="geometry" />
        </mxCell>
        <mxCell id="CeqY9ZqF0VEwMTMQzWw6-87" value="+ VerificarPesoMaximo()" style="text;strokeColor=none;fillColor=none;align=left;verticalAlign=top;spacingLeft=4;spacingRight=4;overflow=hidden;rotatable=0;points=[[0,0.5],[1,0.5]];portConstraint=eastwest;whiteSpace=wrap;html=1;" vertex="1" parent="CeqY9ZqF0VEwMTMQzWw6-39">
          <mxGeometry y="190" width="200" height="26" as="geometry" />
        </mxCell>
        <mxCell id="CeqY9ZqF0VEwMTMQzWw6-56" style="edgeStyle=orthogonalEdgeStyle;rounded=0;orthogonalLoop=1;jettySize=auto;html=1;entryX=0.5;entryY=0;entryDx=0;entryDy=0;" edge="1" parent="WIyWlLk6GJQsqaUBKTNV-1" source="CeqY9ZqF0VEwMTMQzWw6-51" target="CeqY9ZqF0VEwMTMQzWw6-27">
          <mxGeometry relative="1" as="geometry">
            <Array as="points">
              <mxPoint x="199" y="420" />
              <mxPoint x="164" y="420" />
            </Array>
          </mxGeometry>
        </mxCell>
        <mxCell id="CeqY9ZqF0VEwMTMQzWw6-76" style="edgeStyle=orthogonalEdgeStyle;rounded=0;orthogonalLoop=1;jettySize=auto;html=1;entryX=0.5;entryY=0;entryDx=0;entryDy=0;" edge="1" parent="WIyWlLk6GJQsqaUBKTNV-1" source="CeqY9ZqF0VEwMTMQzWw6-51" target="CeqY9ZqF0VEwMTMQzWw6-31">
          <mxGeometry relative="1" as="geometry">
            <Array as="points">
              <mxPoint x="199" y="420" />
              <mxPoint x="409" y="420" />
            </Array>
          </mxGeometry>
        </mxCell>
        <mxCell id="CeqY9ZqF0VEwMTMQzWw6-51" value="Usuario" style="swimlane;fontStyle=0;childLayout=stackLayout;horizontal=1;startSize=26;fillColor=none;horizontalStack=0;resizeParent=1;resizeParentMax=0;resizeLast=0;collapsible=1;marginBottom=0;whiteSpace=wrap;html=1;" vertex="1" parent="WIyWlLk6GJQsqaUBKTNV-1">
          <mxGeometry x="129" y="226" width="170" height="114" as="geometry" />
        </mxCell>
        <mxCell id="CeqY9ZqF0VEwMTMQzWw6-52" value="+ id: INT&amp;nbsp;" style="text;strokeColor=none;fillColor=none;align=left;verticalAlign=top;spacingLeft=4;spacingRight=4;overflow=hidden;rotatable=0;points=[[0,0.5],[1,0.5]];portConstraint=eastwest;whiteSpace=wrap;html=1;" vertex="1" parent="CeqY9ZqF0VEwMTMQzWw6-51">
          <mxGeometry y="26" width="170" height="24" as="geometry" />
        </mxCell>
        <mxCell id="CeqY9ZqF0VEwMTMQzWw6-54" value="+ nome: String" style="text;strokeColor=none;fillColor=none;align=left;verticalAlign=top;spacingLeft=4;spacingRight=4;overflow=hidden;rotatable=0;points=[[0,0.5],[1,0.5]];portConstraint=eastwest;whiteSpace=wrap;html=1;" vertex="1" parent="CeqY9ZqF0VEwMTMQzWw6-51">
          <mxGeometry y="50" width="170" height="20" as="geometry" />
        </mxCell>
        <mxCell id="CeqY9ZqF0VEwMTMQzWw6-53" value="+ anoNascimento: INT" style="text;strokeColor=none;fillColor=none;align=left;verticalAlign=top;spacingLeft=4;spacingRight=4;overflow=hidden;rotatable=0;points=[[0,0.5],[1,0.5]];portConstraint=eastwest;whiteSpace=wrap;html=1;" vertex="1" parent="CeqY9ZqF0VEwMTMQzWw6-51">
          <mxGeometry y="70" width="170" height="22" as="geometry" />
        </mxCell>
        <mxCell id="CeqY9ZqF0VEwMTMQzWw6-61" value="+ cpf: String" style="text;strokeColor=none;fillColor=none;align=left;verticalAlign=top;spacingLeft=4;spacingRight=4;overflow=hidden;rotatable=0;points=[[0,0.5],[1,0.5]];portConstraint=eastwest;whiteSpace=wrap;html=1;" vertex="1" parent="CeqY9ZqF0VEwMTMQzWw6-51">
          <mxGeometry y="92" width="170" height="22" as="geometry" />
        </mxCell>
      </root>
    </mxGraphModel>
  </diagram>
</mxfile>
